<svg width="27" height="27" viewBox="0 0 27 27" fill="none" xmlns="http://www.w3.org/2000/svg">
<g clip-path="url(#clip0_402_350)">
<path d="M13.5 25.3125C10.3671 25.3125 7.36257 24.068 5.1473 21.8527C2.93203 19.6374 1.6875 16.6329 1.6875 13.5C1.6875 10.3671 2.93203 7.36257 5.1473 5.1473C7.36257 2.93203 10.3671 1.6875 13.5 1.6875C16.6329 1.6875 19.6374 2.93203 21.8527 5.1473C24.068 7.36257 25.3125 10.3671 25.3125 13.5C25.3125 16.6329 24.068 19.6374 21.8527 21.8527C19.6374 24.068 16.6329 25.3125 13.5 25.3125ZM13.5 27C17.0804 27 20.5142 25.5777 23.0459 23.0459C25.5777 20.5142 27 17.0804 27 13.5C27 9.91958 25.5777 6.4858 23.0459 3.95406C20.5142 1.42232 17.0804 0 13.5 0C9.91958 0 6.4858 1.42232 3.95406 3.95406C1.42232 6.4858 0 9.91958 0 13.5C0 17.0804 1.42232 20.5142 3.95406 23.0459C6.4858 25.5777 9.91958 27 13.5 27Z" fill="black"/>
<path d="M7.23083 20.9807C7.42462 21.0926 7.65492 21.1229 7.87107 21.065C8.08721 21.0071 8.2715 20.8657 8.3834 20.6719C8.90164 19.7736 9.64742 19.0276 10.5456 18.5092C11.4439 17.9908 12.4628 17.7181 13.4999 17.7187C15.6852 17.7187 17.5938 18.9051 18.6164 20.6719C18.7291 20.8641 18.9132 21.0039 19.1286 21.0609C19.344 21.1178 19.5732 21.0873 19.7662 20.9759C19.9591 20.8644 20.1002 20.6812 20.1586 20.4662C20.2169 20.2512 20.1879 20.0218 20.0778 19.8281C19.4114 18.6733 18.4526 17.7143 17.2979 17.0478C16.1431 16.3813 14.8332 16.0306 13.4999 16.0312C12.1667 16.031 10.8569 16.3817 9.70217 17.0482C8.54749 17.7147 7.58864 18.6735 6.92202 19.8281C6.81014 20.0219 6.77982 20.2522 6.83773 20.4684C6.89564 20.6845 7.03705 20.8688 7.23083 20.9807ZM19.0281 6.83944C19.1273 6.78878 19.2355 6.75825 19.3465 6.74961C19.4576 6.74097 19.5692 6.7544 19.675 6.78911C19.7808 6.82381 19.8787 6.87912 19.963 6.95184C20.0473 7.02456 20.1164 7.11326 20.1663 7.21281C20.2162 7.31236 20.2459 7.4208 20.2537 7.53189C20.2615 7.64297 20.2472 7.75449 20.2116 7.86002C20.1761 7.96555 20.12 8.06301 20.0467 8.14677C19.9733 8.23054 19.8841 8.29895 19.7841 8.34806L18.0815 9.19856C18.3785 9.65419 18.5624 10.2786 18.5624 10.9687C18.5624 12.366 17.8064 13.5 16.8749 13.5C15.9434 13.5 15.1874 12.366 15.1874 10.9687C15.1874 10.5519 15.2549 10.1587 15.373 9.81112C15.2945 9.7127 15.239 9.59802 15.2104 9.47543C15.1818 9.35283 15.1808 9.2254 15.2077 9.10241C15.2345 8.97941 15.2884 8.86394 15.3655 8.7644C15.4425 8.66485 15.5408 8.58373 15.6531 8.52694L19.0281 6.83944ZM7.97165 6.83944C7.77183 6.74123 7.5413 6.72599 7.33029 6.79702C7.11928 6.86806 6.9449 7.01962 6.84515 7.21867C6.74541 7.41772 6.72838 7.64812 6.79777 7.85967C6.86717 8.07123 7.01737 8.24677 7.21565 8.34806L8.91833 9.19856C8.59261 9.73074 8.42574 10.3449 8.4374 10.9687C8.4374 12.366 9.1934 13.5 10.1249 13.5C11.0564 13.5 11.8124 12.366 11.8124 10.9687C11.8124 10.5519 11.7449 10.1587 11.6268 9.81112C11.7053 9.7127 11.7608 9.59802 11.7894 9.47543C11.818 9.35283 11.819 9.2254 11.7921 9.10241C11.7653 8.97941 11.7114 8.86394 11.6343 8.7644C11.5573 8.66485 11.459 8.58373 11.3466 8.52694L7.97165 6.83944Z" fill=""/>
</g>
<defs>
<clipPath id="clip0_402_350">
<rect width="27" height="27" fill=""/>
</clipPath>
</defs>
</svg>
