<svg width="11" height="9" viewBox="0 0 11 9" fill="none" xmlns="http://www.w3.org/2000/svg">
<path d="M5.05473 8.59986C5.10442 8.67203 5.17092 8.73104 5.24848 8.77181C5.32604 8.81257 5.41236 8.83387 5.49998 8.83387C5.58761 8.83387 5.67392 8.81257 5.75148 8.77181C5.82905 8.73104 5.89554 8.67203 5.94523 8.59986L10.8202 1.55819C10.8767 1.47697 10.9097 1.38184 10.9159 1.28313C10.9221 1.18443 10.9011 1.08592 10.8552 0.998318C10.8093 0.910715 10.7402 0.837364 10.6556 0.786236C10.5709 0.735108 10.4739 0.708158 10.375 0.708314H0.624981C0.526313 0.708721 0.429622 0.736018 0.345308 0.787269C0.260994 0.838519 0.192245 0.911784 0.146456 0.999185C0.100666 1.08659 0.0795689 1.18482 0.0854318 1.28331C0.0912948 1.3818 0.123897 1.47684 0.179731 1.55819L5.05473 8.59986Z" fill="#090909"/>
</svg>
