<svg width="24" height="22" viewBox="0 0 24 22" fill="none" xmlns="http://www.w3.org/2000/svg">
<path d="M17.3333 18.8319C17.3253 19.1424 17.3883 19.4511 17.5186 19.74C17.649 20.0289 17.844 20.2921 18.0923 20.5142C18.3406 20.7363 18.6371 20.9127 18.9645 21.0332C19.2918 21.1538 19.6434 21.2159 19.9987 21.216C20.3539 21.216 20.7055 21.1541 21.0329 21.0337C21.3604 20.9133 21.657 20.737 21.9054 20.515C22.1538 20.293 22.349 20.0299 22.4795 19.7411C22.61 19.4523 22.6732 19.1436 22.6653 18.8331C22.6499 18.224 22.3624 17.6443 21.8642 17.2182C21.3661 16.7921 20.6969 16.5534 20 16.5533C19.3031 16.5531 18.6338 16.7915 18.1354 17.2174C17.637 17.6433 17.3491 18.2228 17.3333 18.8319ZM4 18.8319C4 19.4502 4.28095 20.0432 4.78105 20.4804C5.28115 20.9176 5.95942 21.1632 6.66667 21.1632C7.37391 21.1632 8.05219 20.9176 8.55229 20.4804C9.05238 20.0432 9.33333 19.4502 9.33333 18.8319C9.33333 18.2136 9.05238 17.6206 8.55229 17.1834C8.05219 16.7462 7.37391 16.5006 6.66667 16.5006C5.95942 16.5006 5.28115 16.7462 4.78105 17.1834C4.28095 17.6206 4 18.2136 4 18.8319ZM8.72933 13.2041L23.4867 9.51825C23.631 9.47618 23.7573 9.39684 23.8489 9.2907C23.9406 9.18456 23.9932 9.05662 24 8.92376V2.51261H5.33333V0.647541C5.33333 0.391094 5.092 0.181274 4.80133 0.181274H0.532C0.390891 0.181889 0.255781 0.231248 0.156126 0.31859C0.0564702 0.405932 0.000350145 0.524175 0 0.647541L0 2.51261H2.66667L4.78105 17.1834L5.33333 14.0527V15.9749C5.33333 16.2302 5.57333 16.4411 5.86667 16.4411H23.4667C23.76 16.4411 24 16.229 24 15.9749V14.1693H9.00267C7.46933 14.1693 7.43733 13.527 8.72933 13.2041Z" fill="black"/>
</svg>
