<svg width="24" height="24" viewBox="0 0 24 24" fill="none" xmlns="http://www.w3.org/2000/svg">
<g filter="url(#filter0_d_427_253)">
<circle cx="12" cy="12" r="9" fill="white"/>
</g>
<rect width="10" height="10" transform="translate(7 8)" fill="white"/>
<path d="M11.6575 16.1537C11.6957 16.2092 11.7469 16.2546 11.8065 16.286C11.8662 16.3174 11.9326 16.3337 12 16.3337C12.0674 16.3337 12.1338 16.3174 12.1935 16.286C12.2531 16.2546 12.3043 16.2092 12.3425 16.1537L16.0925 10.7371C16.1359 10.6746 16.1613 10.6014 16.1661 10.5255C16.1708 10.4496 16.1547 10.3738 16.1194 10.3064C16.0841 10.239 16.031 10.1826 15.9658 10.1433C15.9007 10.1039 15.8261 10.0832 15.75 10.0833H8.24999C8.17409 10.0836 8.09971 10.1046 8.03486 10.144C7.97 10.1835 7.91712 10.2398 7.88189 10.3071C7.84667 10.3743 7.83044 10.4499 7.83495 10.5256C7.83946 10.6014 7.86454 10.6745 7.90749 10.7371L11.6575 16.1537Z" fill="#090909"/>
<defs>
<filter id="filter0_d_427_253" x="0" y="0" width="24" height="24" filterUnits="userSpaceOnUse" color-interpolation-filters="sRGB">
<feFlood flood-opacity="0" result="BackgroundImageFix"/>
<feColorMatrix in="SourceAlpha" type="matrix" values="0 0 0 0 0 0 0 0 0 0 0 0 0 0 0 0 0 0 127 0" result="hardAlpha"/>
<feMorphology radius="1" operator="dilate" in="SourceAlpha" result="effect1_dropShadow_427_253"/>
<feOffset/>
<feGaussianBlur stdDeviation="1"/>
<feComposite in2="hardAlpha" operator="out"/>
<feColorMatrix type="matrix" values="0 0 0 0 0 0 0 0 0 0 0 0 0 0 0 0 0 0 0.25 0"/>
<feBlend mode="normal" in2="BackgroundImageFix" result="effect1_dropShadow_427_253"/>
<feBlend mode="normal" in="SourceGraphic" in2="effect1_dropShadow_427_253" result="shape"/>
</filter>
</defs>
</svg>
