<svg width="27" height="27" viewBox="0 0 27 27" fill="none" xmlns="http://www.w3.org/2000/svg">
<g clip-path="url(#clip0_402_354)">
<path d="M13.5 25.3125C10.3671 25.3125 7.36257 24.068 5.1473 21.8527C2.93203 19.6374 1.6875 16.6329 1.6875 13.5C1.6875 10.3671 2.93203 7.36257 5.1473 5.1473C7.36257 2.93203 10.3671 1.6875 13.5 1.6875C16.6329 1.6875 19.6374 2.93203 21.8527 5.1473C24.068 7.36257 25.3125 10.3671 25.3125 13.5C25.3125 16.6329 24.068 19.6374 21.8527 21.8527C19.6374 24.068 16.6329 25.3125 13.5 25.3125ZM13.5 27C17.0804 27 20.5142 25.5777 23.0459 23.0459C25.5777 20.5142 27 17.0804 27 13.5C27 9.91958 25.5777 6.4858 23.0459 3.95406C20.5142 1.42232 17.0804 0 13.5 0C9.91958 0 6.4858 1.42232 3.95406 3.95406C1.42232 6.4858 0 9.91958 0 13.5C0 17.0804 1.42232 20.5142 3.95406 23.0459C6.4858 25.5777 9.91958 27 13.5 27Z" fill="black"/>
<path d="M19.094 16.8986C19.2542 16.8609 19.4219 16.8709 19.5765 16.9273C19.7311 16.9837 19.8659 17.084 19.9642 17.216C20.0624 17.348 20.12 17.5059 20.1297 17.6702C20.1394 17.8344 20.1008 17.998 20.0188 18.1406C19.3524 19.2955 18.3936 20.2544 17.2389 20.921C16.0841 21.5875 14.7742 21.9381 13.4409 21.9375C12.1076 21.9381 10.7977 21.5875 9.64291 20.921C8.48817 20.2544 7.52938 19.2955 6.86302 18.1406C6.78096 17.998 6.74242 17.8344 6.75212 17.6702C6.76183 17.5059 6.81936 17.348 6.91764 17.216C7.01592 17.084 7.15066 16.9837 7.30526 16.9273C7.45986 16.8709 7.62758 16.8609 7.78777 16.8986H7.79621L7.8249 16.9071L7.93796 16.9324L8.36321 17.0252C8.72602 17.1028 9.23227 17.2074 9.8094 17.3104C10.9788 17.5196 12.3778 17.7188 13.4409 17.7188C14.504 17.7188 15.9046 17.5196 17.0724 17.3104C17.6988 17.1977 18.3228 17.0716 18.9438 16.9324L19.0569 16.9071L19.0856 16.9003L19.094 16.8969V16.8986ZM8.02571 7.70513C9.31327 5.30213 14.8095 7.50263 9.63221 13.5C2.04521 10.8068 5.66658 6.24713 8.02571 7.70513ZM18.9742 7.70513C21.3333 6.24713 24.9547 10.8068 17.3677 13.5C12.1921 7.50263 17.6883 5.30213 18.9742 7.70513Z" fill="black"/>
</g>
<defs>
<clipPath id="clip0_402_354">
<rect width="27" height="27" fill="white"/>
</clipPath>
</defs>
</svg>
