<svg width="24" height="24" viewBox="0 0 24 24" fill="none" xmlns="http://www.w3.org/2000/svg">
<g filter="url(#filter0_d_427_252)">
<circle cx="12" cy="12" r="9" fill="white"/>
</g>
<rect width="10" height="10" transform="translate(7 6)" fill="white"/>
<path d="M12.3436 8.26332C12.3054 8.20781 12.2543 8.16241 12.1946 8.13105C12.1349 8.09969 12.0685 8.08331 12.0011 8.08331C11.9337 8.08331 11.8673 8.09969 11.8077 8.13105C11.748 8.16241 11.6969 8.20781 11.6586 8.26332L7.90864 13.68C7.86523 13.7425 7.83978 13.8156 7.83504 13.8916C7.83031 13.9675 7.84647 14.0433 7.88177 14.1107C7.91708 14.178 7.97017 14.2345 8.03529 14.2738C8.10041 14.3131 8.17507 14.3339 8.25114 14.3337L15.7511 14.3337C15.827 14.3334 15.9014 14.3124 15.9663 14.273C16.0311 14.2336 16.084 14.1772 16.1192 14.11C16.1545 14.0428 16.1707 13.9672 16.1662 13.8914C16.1617 13.8157 16.1366 13.7426 16.0936 13.68L12.3436 8.26332Z" fill="#090909"/>
<defs>
<filter id="filter0_d_427_252" x="0" y="0" width="24" height="24" filterUnits="userSpaceOnUse" color-interpolation-filters="sRGB">
<feFlood flood-opacity="0" result="BackgroundImageFix"/>
<feColorMatrix in="SourceAlpha" type="matrix" values="0 0 0 0 0 0 0 0 0 0 0 0 0 0 0 0 0 0 127 0" result="hardAlpha"/>
<feMorphology radius="1" operator="dilate" in="SourceAlpha" result="effect1_dropShadow_427_252"/>
<feOffset/>
<feGaussianBlur stdDeviation="1"/>
<feComposite in2="hardAlpha" operator="out"/>
<feColorMatrix type="matrix" values="0 0 0 0 0 0 0 0 0 0 0 0 0 0 0 0 0 0 0.25 0"/>
<feBlend mode="normal" in2="BackgroundImageFix" result="effect1_dropShadow_427_252"/>
<feBlend mode="normal" in="SourceGraphic" in2="effect1_dropShadow_427_252" result="shape"/>
</filter>
</defs>
</svg>
