<svg width="27" height="27" viewBox="0 0 27 27" fill="none" xmlns="http://www.w3.org/2000/svg">
<g clip-path="url(#clip0_402_358)">
<path d="M13.5 25.3125C10.3671 25.3125 7.36257 24.068 5.1473 21.8527C2.93203 19.6374 1.6875 16.6329 1.6875 13.5C1.6875 10.3671 2.93203 7.36257 5.1473 5.1473C7.36257 2.93203 10.3671 1.6875 13.5 1.6875C16.6329 1.6875 19.6374 2.93203 21.8527 5.1473C24.068 7.36257 25.3125 10.3671 25.3125 13.5C25.3125 16.6329 24.068 19.6374 21.8527 21.8527C19.6374 24.068 16.6329 25.3125 13.5 25.3125ZM13.5 27C17.0804 27 20.5142 25.5777 23.0459 23.0459C25.5777 20.5142 27 17.0804 27 13.5C27 9.91958 25.5777 6.4858 23.0459 3.95406C20.5142 1.42232 17.0804 0 13.5 0C9.91958 0 6.4858 1.42232 3.95406 3.95406C1.42232 6.4858 0 9.91958 0 13.5C0 17.0804 1.42232 20.5142 3.95406 23.0459C6.4858 25.5777 9.91958 27 13.5 27Z" fill="black"/>
<path d="M6.75 17.7188C6.75 17.495 6.8389 17.2804 6.99713 17.1221C7.15536 16.9639 7.36997 16.875 7.59375 16.875H19.4062C19.63 16.875 19.8446 16.9639 20.0029 17.1221C20.1611 17.2804 20.25 17.495 20.25 17.7188C20.25 17.9425 20.1611 18.1571 20.0029 18.3154C19.8446 18.4736 19.63 18.5625 19.4062 18.5625H7.59375C7.36997 18.5625 7.15536 18.4736 6.99713 18.3154C6.8389 18.1571 6.75 17.9425 6.75 17.7188ZM6.75 10.9688C6.75 10.745 6.8389 10.5304 6.99713 10.3721C7.15536 10.2139 7.36997 10.125 7.59375 10.125H10.9688C11.1925 10.125 11.4071 10.2139 11.5654 10.3721C11.7236 10.5304 11.8125 10.745 11.8125 10.9688C11.8125 11.1925 11.7236 11.4071 11.5654 11.5654C11.4071 11.7236 11.1925 11.8125 10.9688 11.8125H7.59375C7.36997 11.8125 7.15536 11.7236 6.99713 11.5654C6.8389 11.4071 6.75 11.1925 6.75 10.9688ZM15.1875 10.9688C15.1875 10.745 15.2764 10.5304 15.4346 10.3721C15.5929 10.2139 15.8075 10.125 16.0312 10.125H19.4062C19.63 10.125 19.8446 10.2139 20.0029 10.3721C20.1611 10.5304 20.25 10.745 20.25 10.9688C20.25 11.1925 20.1611 11.4071 20.0029 11.5654C19.8446 11.7236 19.63 11.8125 19.4062 11.8125H16.0312C15.8075 11.8125 15.5929 11.7236 15.4346 11.5654C15.2764 11.4071 15.1875 11.1925 15.1875 10.9688Z" fill="black"/>
</g>
<defs>
<clipPath id="clip0_402_358">
<rect width="27" height="27" fill="white"/>
</clipPath>
</defs>
</svg>
