<svg width="163" height="25" viewBox="0 0 163 25" fill="none" xmlns="http://www.w3.org/2000/svg">
<path d="M22.9 6.33332C22.1344 6.67332 21.312 6.90212 20.4488 7.00532C21.3304 6.47732 22.0064 5.64132 22.3248 4.64452C21.5008 5.13332 20.5872 5.48852 19.6144 5.68052C18.836 4.85092 17.7272 4.33252 16.5 4.33252C14.1432 4.33252 12.2328 6.24372 12.2328 8.59972C12.2328 8.93412 12.2712 9.26052 12.3432 9.57172C8.79684 9.39412 5.65284 7.69492 3.54724 5.11252C3.18084 5.74292 2.97044 6.47572 2.97044 7.25892C2.97044 8.73892 3.72324 10.0453 4.86804 10.8101C4.16884 10.7877 3.51044 10.5957 2.93524 10.2765C2.93524 10.2949 2.93524 10.3117 2.93524 10.3301C2.93524 12.3981 4.40564 14.1229 6.35844 14.5141C6.00084 14.6117 5.62324 14.6637 5.23364 14.6637C4.95924 14.6637 4.69124 14.6365 4.43124 14.5877C4.97444 16.2829 6.55044 17.5173 8.41764 17.5517C6.95764 18.6965 5.11764 19.3789 3.11764 19.3789C2.77364 19.3789 2.43364 19.3589 2.09924 19.3189C3.98804 20.5293 6.23044 21.2357 8.64084 21.2357C16.4904 21.2357 20.7816 14.7333 20.7816 9.09412C20.7816 8.90932 20.7776 8.72532 20.7696 8.54212C21.604 7.93972 22.328 7.18852 22.9 6.33332Z" fill="#333333"/>
<path d="M77.4985 3.18365C74.4113 3.18365 71.9 5.69722 71.9 8.78522V16.7852C71.9 19.8724 74.4136 22.3837 77.5016 22.3837H85.5016C88.5888 22.3837 91.1 19.8701 91.1 16.7821V8.78209C91.1 5.69489 88.5865 3.18365 85.4985 3.18365H77.4985ZM87.1 6.38365C87.5416 6.38365 87.9 6.74205 87.9 7.18365C87.9 7.62525 87.5416 7.98365 87.1 7.98365C86.6584 7.98365 86.3 7.62525 86.3 7.18365C86.3 6.74205 86.6584 6.38365 87.1 6.38365ZM81.5 7.98365C84.1472 7.98365 86.3 10.1365 86.3 12.7837C86.3 15.4309 84.1472 17.5837 81.5 17.5837C78.8528 17.5837 76.7 15.4309 76.7 12.7837C76.7 10.1365 78.8528 7.98365 81.5 7.98365ZM81.5 9.58365C80.6513 9.58365 79.8374 9.9208 79.2373 10.5209C78.6372 11.121 78.3 11.935 78.3 12.7837C78.3 13.6323 78.6372 14.4463 79.2373 15.0464C79.8374 15.6465 80.6513 15.9837 81.5 15.9837C82.3487 15.9837 83.1626 15.6465 83.7628 15.0464C84.3629 14.4463 84.7 13.6323 84.7 12.7837C84.7 11.935 84.3629 11.121 83.7628 10.5209C83.1626 9.9208 82.3487 9.58365 81.5 9.58365Z" fill="#333333"/>
<path d="M150.5 3.9837C147.151 3.9837 142.805 4.82277 142.805 4.82277L142.794 4.83527C141.269 5.0792 140.1 6.3898 140.1 7.9837V12.7837V12.7853V17.5837V17.5853C140.101 18.3465 140.374 19.0823 140.869 19.6605C141.365 20.2386 142.05 20.6214 142.802 20.74L142.805 20.7446C142.805 20.7446 147.151 21.5853 150.5 21.5853C153.849 21.5853 158.195 20.7446 158.195 20.7446L158.197 20.7431C158.95 20.6248 159.635 20.2417 160.131 19.6628C160.626 19.084 160.899 18.3473 160.9 17.5853V17.5837V12.7853V12.7837V7.9837C160.899 7.22221 160.626 6.48607 160.131 5.90755C159.636 5.32903 158.951 4.94607 158.198 4.82745L158.195 4.82277C158.195 4.82277 153.849 3.9837 150.5 3.9837ZM148.1 9.10245L154.5 12.7837L148.1 16.465V9.10245Z" fill="#333333"/>
</svg>
