<svg width="56" height="56" viewBox="0 0 56 56" fill="none" xmlns="http://www.w3.org/2000/svg">
<g clip-path="url(#clip0_402_339)">
<path d="M28 3.11108C23.0774 3.11108 18.2654 4.57079 14.1725 7.30562C10.0795 10.0404 6.88943 13.9276 5.00565 18.4754C3.12187 23.0233 2.62898 28.0276 3.58933 32.8556C4.54967 37.6835 6.92011 42.1183 10.4009 45.5991C13.8817 49.0798 18.3164 51.4503 23.1444 52.4106C27.9724 53.371 32.9767 52.8781 37.5246 50.9943C42.0724 49.1105 45.9595 45.9205 48.6943 41.8275C51.4292 37.7345 52.8889 32.9225 52.8889 28C52.8889 21.399 50.2667 15.0684 45.5991 10.4009C40.9315 5.7333 34.6009 3.11108 28 3.11108ZM44.2555 19.6466L23.8155 40.0711L11.7444 28C11.3319 27.5874 11.1001 27.0279 11.1001 26.4444C11.1001 25.861 11.3319 25.3014 11.7444 24.8889C12.157 24.4763 12.7165 24.2445 13.3 24.2445C13.8834 24.2445 14.443 24.4763 14.8555 24.8889L23.8467 33.88L41.1755 16.5666C41.3798 16.3624 41.6223 16.2003 41.8892 16.0898C42.1561 15.9792 42.4422 15.9223 42.7311 15.9223C43.02 15.9223 43.3061 15.9792 43.573 16.0898C43.8399 16.2003 44.0824 16.3624 44.2867 16.5666C44.4909 16.7709 44.653 17.0134 44.7635 17.2803C44.8741 17.5472 44.931 17.8333 44.931 18.1222C44.931 18.4111 44.8741 18.6972 44.7635 18.9641C44.653 19.231 44.4909 19.4735 44.2867 19.6777L44.2555 19.6466Z" fill="black"/>
</g>
<defs>
<clipPath id="clip0_402_339">
<rect width="56" height="56" fill="white"/>
</clipPath>
</defs>
</svg>
