<svg width="67" height="41" viewBox="0 0 67 41" fill="none" xmlns="http://www.w3.org/2000/svg">
<path d="M60.7299 1.64802C55.9782 1.64802 48.9792 4.60175 41.5306 7.87654C40.5032 7.55549 39.4116 7.17022 38.3842 6.78495C27.083 2.6754 15.3965 -1.56256 1.59099 1.58381L1.52678 1.64802L0.370972 4.60176L0.69203 4.40912C0.69203 4.40912 3.51734 2.80383 9.55323 2.61119C15.1396 2.48277 24.7072 3.51016 38.6411 9.16078C35.0452 10.7661 31.4494 12.3714 27.982 13.6556C27.4683 13.3987 27.0188 13.1419 26.5051 12.8208C21.3682 9.99553 16.8734 7.55549 13.0207 7.55549C10.2596 7.55549 8.01215 9.80289 8.01215 12.4998C8.01215 15.2609 10.2596 17.5083 13.0207 17.5083C17.387 17.5083 22.5882 16.0314 27.982 13.9767C30.9357 15.5819 34.0179 17.1872 37.3569 18.5357C36.9716 18.7925 36.5863 18.9852 36.201 19.1778C34.2747 20.3336 32.2841 21.4894 30.2936 22.4526C26.7619 20.5262 23.4871 18.9209 20.6618 18.9209C18.8639 18.9209 17.387 20.3978 17.387 22.1315C17.387 23.9294 18.8639 25.4063 20.6618 25.4063C23.9366 25.4063 27.1472 24.2505 30.2936 22.7094C30.8073 22.9663 31.7704 23.5442 31.7704 23.5442C33.5684 24.5716 35.4305 25.5347 37.2926 26.4337C36.3295 27.0116 35.3663 27.6537 34.4673 28.36C33.4399 29.0022 32.4768 29.7085 31.5136 30.2864C29.1378 29.3232 26.8262 28.7453 25.5419 28.7453C24.3861 28.7453 23.4229 29.7085 23.4229 30.8643C23.4229 32.0201 24.3861 32.9833 25.5419 32.9833C27.3398 32.9833 29.3946 31.9559 31.5778 30.5432C32.541 30.9927 33.5684 31.4422 34.5958 32.0201C36.9074 33.3043 40.8243 36.0012 40.8243 39.5329V39.6613L42.8791 40.0466L42.9433 39.9181C42.9433 39.8539 43.2001 38.2486 42.1085 36.1939C41.0811 34.2675 38.7695 31.5706 33.1831 29.5159C33.6326 29.1948 34.1463 28.8737 34.5958 28.5527C35.5589 27.8463 36.5863 27.2042 37.5495 26.5621C40.118 27.7179 42.6864 28.5527 45.0622 28.5527C46.5391 28.5527 47.6949 27.3327 47.6949 25.92C47.6949 24.5074 46.5391 23.2873 45.0622 23.2873C42.7506 23.2873 40.118 24.6358 37.5495 26.2411C35.6874 25.4063 33.761 24.3147 31.8989 23.2873C31.8989 23.2873 30.9999 22.8378 30.5504 22.581C32.541 21.6178 34.4673 20.5262 36.3295 19.4346C36.7789 19.1778 37.2284 18.9209 37.6137 18.6641C41.7875 20.3336 46.2823 21.4894 51.1623 21.4894C53.4098 21.4894 55.2077 19.6915 55.2077 17.4441C55.2077 15.2609 53.4098 13.463 51.1623 13.463C46.6675 13.463 42.0443 15.8388 37.6137 18.4072C34.3389 17.0588 31.1925 15.4535 28.303 13.8482C32.0915 12.3714 36.0084 10.6376 39.8611 8.90393C40.3748 8.64709 40.9527 8.45445 41.5306 8.1976C48.0802 10.5092 54.3729 12.4998 60.7299 12.4998C64.711 12.4998 66.8942 10.8303 66.8942 7.81233C66.8942 4.40912 64.1331 1.64802 60.7299 1.64802ZM13.0207 17.2514C10.388 17.2514 8.269 15.1325 8.269 12.4998C8.269 9.93132 10.388 7.81233 13.0207 7.81233C16.8091 7.81233 21.2397 10.2524 26.3767 13.0777C26.8262 13.3345 27.2114 13.5272 27.6609 13.784C22.3956 15.8388 17.3228 17.2514 13.0207 17.2514ZM20.6618 25.1495C18.9923 25.1495 17.6439 23.801 17.6439 22.1315C17.6439 20.5262 18.9923 19.1778 20.6618 19.1778C23.3587 19.1778 26.5693 20.7189 30.0367 22.581C26.9546 24.0579 23.8082 25.1495 20.6618 25.1495ZM25.5419 32.7264C24.5145 32.7264 23.6798 31.8917 23.6798 30.8643C23.6798 29.8369 24.5145 29.0022 25.5419 29.0022C26.7619 29.0022 28.9451 29.5159 31.2568 30.479C29.1378 31.7633 27.2114 32.7264 25.5419 32.7264ZM41.8517 36.2581C42.7506 37.9918 42.7506 39.3402 42.6864 39.7897L41.0811 39.4687C41.0169 35.4875 36.2653 32.2127 31.8347 30.4148C32.2199 30.158 32.541 29.9011 32.9263 29.7085C38.5127 31.699 40.8885 34.3959 41.8517 36.2581ZM45.0622 23.5442C46.3465 23.5442 47.4381 24.6358 47.4381 25.92C47.4381 27.2042 46.3465 28.2958 45.0622 28.2958C42.7506 28.2958 40.3106 27.4611 37.8705 26.3695C40.3748 24.8284 42.8148 23.5442 45.0622 23.5442ZM51.1623 13.7198C53.2813 13.7198 54.9508 15.3893 54.9508 17.4441C54.9508 19.4988 53.2813 21.2326 51.1623 21.2326C46.4107 21.2326 42.0443 20.0767 37.9348 18.5357C42.4296 15.903 46.7317 13.7198 51.1623 13.7198ZM38.9621 9.03235C25.7346 3.63858 16.4239 2.35435 10.709 2.35435C10.2596 2.35435 9.87429 2.35435 9.55323 2.35435C4.48051 2.54698 1.71942 3.63858 0.884664 4.02385L1.71942 1.84066C15.3965 -1.30571 27.083 2.93225 38.32 7.04179C39.2832 7.36285 40.2464 7.68391 41.1453 8.06918C40.3748 8.39024 38.9621 9.03235 38.9621 9.03235ZM60.7299 12.2429C54.5014 12.2429 48.2728 10.3166 41.8517 8.00497C49.236 4.79439 56.0424 1.90487 60.7299 1.90487C64.0047 1.90487 66.6373 4.53754 66.6373 7.81233C66.6373 11.4724 63.4268 12.2429 60.7299 12.2429Z" fill="#333333"/>
</svg>
